<svg width="24" height="23" viewBox="0 0 24 23" fill="none" xmlns="http://www.w3.org/2000/svg">
<path d="M13.3312 20.1202C18.0827 19.4549 21.7255 15.6387 21.7255 11.0306C21.7255 5.95389 17.304 1.83838 11.8498 1.83838C6.39562 1.83838 1.97412 5.95389 1.97412 11.0306C1.97412 15.6387 5.61701 19.4549 10.3685 20.1202V13.7883H8.88711C8.06897 13.7883 7.40575 13.171 7.40575 12.4095C7.40575 11.648 8.06897 11.0306 8.88711 11.0306H10.3685V9.19218C10.3685 7.41532 11.916 5.97489 13.825 5.97489H14.3187C15.1368 5.97489 15.8001 6.59222 15.8001 7.35373C15.8001 8.11525 15.1368 8.73257 14.3187 8.73257H13.825C13.5523 8.73257 13.3312 8.93835 13.3312 9.19218V11.0306H14.8125C15.6306 11.0306 16.2939 11.648 16.2939 12.4095C16.2939 13.171 15.6306 13.7883 14.8125 13.7883H13.3312V20.1202Z" fill="white"/>
</svg>
