<svg width="25" height="23" viewBox="0 0 25 23" fill="none" xmlns="http://www.w3.org/2000/svg">
<path d="M7.6384 2.12398C8.24933 2.31737 9.00504 2.62559 9.73703 3.08506C10.6241 2.8722 11.5714 2.75772 12.553 2.75772C13.5336 2.75772 14.48 2.87197 15.3663 3.08442C16.0981 2.62517 16.8537 2.31711 17.4644 2.12383C18.1527 1.90603 19.1336 1.55236 19.716 2.1529C20.1114 2.56062 20.2095 3.24489 20.28 3.76658C20.3588 4.34954 20.3772 5.10943 20.1699 5.86283C20.9628 6.81589 21.4412 7.95358 21.4412 9.1923C21.4412 11.0695 20.3488 12.699 18.7321 13.8276C17.9879 14.347 17.1228 14.7695 16.1741 15.0742C16.3858 15.5249 16.5033 16.0228 16.5033 16.5461V19.3038C16.5033 19.8115 16.0611 20.223 15.5157 20.223H9.59028C9.04486 20.223 8.60271 19.8115 8.60271 19.3038V18.3925C7.65926 18.5001 6.86862 18.405 6.19556 18.1392C5.49262 17.8616 5.00266 17.431 4.63442 17.0197C4.28511 16.6296 3.9043 15.7509 3.35254 15.5797C2.83512 15.4191 2.55548 14.8986 2.72794 14.417C2.90042 13.9353 3.4597 13.6751 3.97713 13.8356C4.63464 14.0396 5.06276 14.481 5.35671 14.8351C5.82981 15.4049 6.21634 16.1504 6.96695 16.4467C7.27562 16.5686 7.72911 16.6495 8.43704 16.5587L8.60276 16.5279C8.60545 16.0112 8.72264 15.5197 8.93192 15.0742C7.98319 14.7695 7.11801 14.347 6.37391 13.8276C4.75712 12.699 3.66486 11.0695 3.66486 9.1923C3.66486 7.95504 4.14209 6.81853 4.93333 5.86616C4.72525 5.11217 4.74341 4.35146 4.82216 3.76792C4.82374 3.7562 4.82533 3.74443 4.82692 3.73262C4.89889 3.19811 4.9837 2.5682 5.38621 2.153C5.96848 1.55243 6.95022 1.90615 7.6384 2.12398Z" fill="white"/>
</svg>
