<svg width="25" height="23" viewBox="0 0 25 23" fill="none" xmlns="http://www.w3.org/2000/svg">
<path d="M16.2066 2.75781C18.9336 2.75781 21.1444 4.81557 21.1444 7.35394V14.7077C21.1444 17.2461 18.9336 19.3039 16.2066 19.3039H8.30601C5.57892 19.3039 3.36816 17.2461 3.36816 14.7077V7.35394C3.36816 4.81557 5.57892 2.75781 8.30601 2.75781H16.2066ZM12.2563 7.35394C10.0746 7.35394 8.30601 9.00014 8.30601 11.0308C8.30601 13.0615 10.0746 14.7077 12.2563 14.7077C14.4379 14.7077 16.2066 13.0615 16.2066 11.0308C16.2066 9.00014 14.4379 7.35394 12.2563 7.35394ZM12.2563 9.19239C13.3472 9.19239 14.2314 10.0155 14.2314 11.0308C14.2314 12.0462 13.3472 12.8693 12.2563 12.8693C11.1654 12.8693 10.2811 12.0462 10.2811 11.0308C10.2811 10.0155 11.1654 9.19239 12.2563 9.19239ZM16.7004 5.9751C16.1549 5.9751 15.7128 6.38666 15.7128 6.89433C15.7128 7.402 16.1549 7.81355 16.7004 7.81355C17.2458 7.81355 17.6879 7.402 17.6879 6.89433C17.6879 6.38666 17.2458 5.9751 16.7004 5.9751Z" fill="white"/>
</svg>
