<svg width="24" height="23" viewBox="0 0 24 23" fill="none" xmlns="http://www.w3.org/2000/svg">
<path fill-rule="evenodd" clip-rule="evenodd" d="M13.9299 1.83838C15.0208 1.83838 15.905 2.66148 15.905 3.67683C15.905 5.00725 16.9222 6.12362 18.2736 6.37927C19.3426 6.58151 20.033 7.55206 19.8157 8.54706C19.5984 9.54204 18.5558 10.1848 17.4867 9.98253C16.9327 9.87765 16.4025 9.71118 15.905 9.49112V14.7075C15.905 17.7536 13.2521 20.2229 9.97962 20.2229C6.7071 20.2229 4.0542 17.7536 4.0542 14.7075C4.0542 12.1351 5.94448 9.97821 8.49972 9.36601C9.55614 9.11297 10.633 9.70493 10.9049 10.6882C11.1767 11.6715 10.5408 12.6738 9.48437 12.9269C8.63205 13.1311 8.00448 13.8534 8.00448 14.7075C8.00448 15.7229 8.88878 16.546 9.97962 16.546C11.0705 16.546 11.9548 15.7229 11.9548 14.7075V3.67683C11.9548 2.66148 12.839 1.83838 13.9299 1.83838Z" fill="white"/>
</svg>
