<svg width="25" height="23" viewBox="0 0 25 23" fill="none" xmlns="http://www.w3.org/2000/svg">
<path d="M5.34323 4.58104C5.70779 4.54149 6.06584 4.69337 6.27294 4.97542C7.72998 6.95985 9.48003 7.78537 11.4219 7.97319C11.5172 7.19995 11.7413 6.43593 12.1627 5.76328C12.7809 4.77635 13.7862 4.04976 15.2223 3.78127C17.2068 3.41027 18.7177 4.07919 19.5945 4.89842L21.364 4.59051C21.7421 4.52475 22.1266 4.66916 22.3498 4.96063C22.5729 5.2521 22.594 5.63762 22.4038 5.9487L20.7057 8.72667C20.8606 12.7358 19.6636 15.5336 17.1116 17.4612C15.7579 18.4837 13.8208 19.0636 11.6944 19.2427C9.55148 19.4231 7.12914 19.2049 4.72113 18.5504C4.29867 18.4356 4.00882 18.0745 4.01038 17.6649C4.01193 17.2552 4.3045 16.8959 4.72783 16.7839C5.9388 16.4633 6.8605 16.1862 7.69366 15.7022C6.5101 15.1173 5.63802 14.3527 5.0208 13.481C4.16293 12.2694 3.84482 10.9187 3.78167 9.70041C3.71852 8.48228 3.90764 7.35406 4.10682 6.53979C4.22021 6.07626 4.35264 5.61057 4.53518 5.16571C4.66776 4.84508 4.97868 4.62061 5.34323 4.58104Z" fill="white"/>
</svg>
