<svg width="25" height="23" viewBox="0 0 25 23" fill="none" xmlns="http://www.w3.org/2000/svg">
<path fill-rule="evenodd" clip-rule="evenodd" d="M12.3603 3.67676C13.2051 3.67676 14.0704 3.69737 14.9099 3.72986L15.9019 3.774L16.8512 3.8262L17.7402 3.8831L18.5509 3.94138C20.366 4.07848 21.8248 5.38598 22.0023 7.08809L22.0415 7.47833L22.1156 8.31478C22.1849 9.18182 22.236 10.1273 22.236 11.0306C22.236 11.9339 22.1849 12.8793 22.1156 13.7463L22.0415 14.5828C22.0286 14.7163 22.0154 14.8466 22.0023 14.973C21.8248 16.6752 20.366 17.9827 18.5509 18.1197L17.7402 18.178L16.8512 18.2349L15.9019 18.2871L14.9099 18.3313C14.0704 18.3638 13.2051 18.3844 12.3603 18.3844C11.5155 18.3844 10.6502 18.3638 9.81075 18.3313L8.81875 18.2871L7.86937 18.2349L6.98043 18.178L6.16973 18.1197C4.35459 17.9827 2.89584 16.6752 2.71836 14.973L2.67909 14.5828L2.60503 13.7463C2.53577 12.8793 2.48462 11.9339 2.48462 11.0306C2.48462 10.1273 2.53577 9.18182 2.60503 8.31478L2.67909 7.47833C2.69204 7.34477 2.70517 7.2145 2.71836 7.08809C2.89584 5.38598 4.35459 4.07848 6.16973 3.94138L6.98043 3.8831L7.86937 3.8262L8.81875 3.774L9.81074 3.72986C10.6502 3.69737 11.5155 3.67676 12.3603 3.67676ZM10.3852 8.80156V13.2596C10.3852 13.6842 10.879 13.9495 11.274 13.7372L15.4218 11.5082C15.8168 11.2959 15.8168 10.7652 15.4218 10.5529L11.274 8.32391C10.879 8.11163 10.3852 8.37699 10.3852 8.80156Z" fill="white"/>
</svg>
